<svg version="1.1" id="Layer_1" xmlns="http://www.w3.org/2000/svg" xmlns:xlink="http://www.w3.org/1999/xlink" x="0px" y="0px" viewBox="0 0 300 47.6" style="enable-background:new 0 0 300 47.6;" xml:space="preserve">
 <style type="text/css">
  .st0{fill:#CF0A2C;}
 </style>
 <g>
  <path class="st0" d="M147.5,27.3c-0.8-0.2-1.5-0.6-1.8-1.5c-0.3-0.7-0.2-1.6,0-1.9c0.4-0.2,0.8-0.1,1.3-0.3
		c6.2-2.4,11.9-10.4,11.2-12.3c-2.2-1.7-11.5,3.6-17.4,8.8c-5.9,5.2-10.5,11.4-12.4,17.3c-0.2,0.5-0.3,1,0,1.3
		c0.4,0.4,0.9,0,1.4-0.1c2.8-0.9,5-2.3,8.2-4.2c3.7-2.2,5.4-4,8.8-6.6L147.5,27.3L147.5,27.3z M260.4,31.8c-0.9,0.5-2.5,1.3-3.5,2.7
		c-1.2,1.7-1.9,2.6-1.5,5.3c1.6,0.4,3.6-1.4,4-2.1C260.4,35.8,260.4,31.8,260.4,31.8L260.4,31.8z M239.7,36.1
		c1.2,0.8,3.5,0.5,5.2-0.7c1.5-1,2.2-2.1,2.5-3.9c-1.4,1-2.2,1.6-3.6,2.5C242.2,34.9,241.3,35.3,239.7,36.1L239.7,36.1z M225,37
		c0,0,1.8,0.5,3.5-0.8c1.3-1,2.1-3.7,2.1-3.7c-1.1,1.1-1.7,1.7-2.9,2.6C226.7,35.9,226.1,36.3,225,37L225,37z M184,34.8
		c0-0.3,0.1-0.6,0.2-0.9c0.2-0.6,0.4-2.2,0.7-3.4c-0.1-0.8-0.9-0.3-1.6,0.1c-0.9,0.4-2.6,1.5-3,1.9c-0.4,0.4-4.8,3.8-5.2,7.3
		c2.3-0.6,3.7-1.4,5.9-2.7c1.1-0.7,2.2-1.6,2.8-2L184,34.8L184,34.8z M188.6,31.4c3-2.3,5.2-3.9,7.7-7.1c1.9-2.5,4.2-4.6,4.1-7
		c-1.8,0.7-4.8,3.5-7.1,6.4C191,26.4,189.7,28.8,188.6,31.4L188.6,31.4z M199.2,33.5c2.2-1.2,3.1-1.6,4.7-3.2
		c1.1-1.1,2.5-2.7,2.5-3.1c-0.7-0.1-2.6,1-4,2.1C200.9,30.5,199.9,32.1,199.2,33.5L199.2,33.5z M156.3,21.2c0.7,0.5,1.8,1.4,1.1,2.3
		c-0.6,0.9-6,4.8-8.2,8c-1.4,2.1-3.1,4.3-3.2,5.7c1.5-1,3.2-1.8,4-2.5c0.8-0.7,5.8-4.4,7-5.6c1.3-1.2,5.5-5.1,6-5.5
		c0.7-0.8,1.5,0.4,2.2,1.3c0.2,0.7,0.5,1.2,0.4,1.6c-0.3,2-3.3,6.7-3.3,6.7c0.6,0,3.9-3.4,4.5-4.2c0.6-0.8,2.7-3,3.2-3.3
		c0.5-0.2,3.1,1.4,2.3,3.6c-0.7,2.1-2.6,4-3.3,6.5c-0.6,2.5-0.3,3.2-0.3,3.2c1.1,1.6,3.4,0.6,3.4,0.6c-0.2-2.1,0.9-4.3,2.3-6.6
		c2.2-3.7,5.9-5.9,8.4-7c2.6-1,4-1,4.6-0.1c0.3-0.3,2.7-4.6,5.1-7.1c2.7-2.8,6.9-6.4,7.8-6.1c2.4,0.9,2,1.4,2.3,2.8
		c0.5,1.9,0.5,2.9,0,4.6c-0.5,2.2-6,9.5-15.1,17.3c1.1,1.1,5.1-1.4,7.4-2.6c0.6-1.5,1.6-3.1,2.9-4.9c1.7-2.3,2.8-3.5,5-5.2
		c2-1.6,4.4-2.3,5.7-2.3c1.4,0.3,2.2,3.5,1.8,4.9c-0.3,1.4-2.9,4.1-5.5,6c-2.6,2-5.6,3.7-6.9,4.5c-0.2,0.4,0,0.6,0.1,0.6
		c0.5,1,5.8-2.3,8.9-4.6c2.7-2,4.4-3.8,6.2-6c1.8-2.1,4-4,4-4s0.6-0.6,1.5-0.6c1,0.1,2.4,3.5,2.2,5c-0.2,1.5-3.3,8.1-3.3,8.1
		c2.1-0.8,5.3-3,8.5-5.2c4.5-3.3,10-9.6,10.6-9.6c0.6,0,2,2.3,1.8,3.8c-0.2,1.5-4.4,8.7-4.4,8.7s9.8-4.1,16.7-10.7
		c1.1-1.1,1.9-3,2.6-2.9c0.4,0.1,1.6,2.6,1.4,3.2c-0.2,0.7-3.9,8.5-3.9,8.5s3.2-1,4.2-2c1-1.1,5-4.8,6.4-5.1c1.4-0.3,1.6,0,1.6,0
		s2.3-1.7,4.7-0.8c3.1,1,3.9,5.1,3.9,6c0,0.5-0.2,1.8-0.2,1.8s-0.2,0.6,0.3,0.5c0.5-0.2,4.1-2.9,5.1-3.6c1.1-0.8,6-5,6.9-5
		c0.8,0,1.5,2.6,1,3.5c-0.8,1.4-2.8,3.8-3.6,4.8c-0.8,1.1-3.4,4.6-3,6.2c0.3,1.3,2.2,2.1,8.2,2.4c3,0.1,4.2,0.3,8.9,0.5
		c3.6,0,4.3,1.1,4.3,2.3c0,1.2-1.1,2-4.6,1.9c-15.6-0.7-17.2-2-18.2-2.7c-2-1.5-1.7-3-1.9-3.8c-0.1-0.9,0.6-3.6,0.6-3.6
		s-1.6,0.7-3,1.7c-1.4,1-6.1,4.7-6.8,5.1c-0.7,0.3-3.1,1.3-3.3-0.8c-0.2-2,0.1-2.2,0.7-3c0.6-0.8,2-1.5,3-2.8c1-1.2,1.9-2.6,2.1-3.3
		c0.2-0.7,0.8-2.1,0.4-2.8c-0.4-0.7-1.4-1.1-2.5-1.1c-1-0.1-1.6,0-2.4,0.7c-0.1,0.5-0.2,1.2-0.4,2.1c-0.4,1.4-0.6,2.3-0.6,2.9
		c0,0.4-0.2,3.7-1,5.4c-0.7,1.7-3.9,5.7-7.7,4.4c-2.3-0.8-2.9-5.1-2.6-7.1c-1.5,1-2.3,1.2-3.9,1.5c-1.6,1.3-3.3,3.5-7.4,3.2
		c-2.4-0.2-5.4-3.2-5.2-3.4c-0.8,0.6-6.7,3.9-10.1,3.5c-1.8-0.2-4.2-1.1-4.5-2.1c-1.2,0.8-2.7,1.8-5.4,2.8c-0.8,0.3-1.7,0.4-2.1,0.1
		c-0.4-0.2-1.5-1.2-1.4-2.3c0.2-1.3,1.3-2.3,2.1-3.9c1.2-2.3,2.2-5.1,2.7-6.1c-1.3,0.5-1,0.6-1.4,1.1c-0.4,0.5-3.8,4.1-6.8,6.2
		c-4,2.8-8.5,5.9-11.4,5.3c-2.9,0-2.9-2.9-2.9-2.9c-1,0.4-2.2,0.9-3.1,1.2c-2.2,0.8-4.3,0.9-5.3,0.1c-0.3-0.2-0.8-0.8-1.1-1.9
		l-0.9,0.6c0,0-4,2.7-6.3,3.5c-1.7,0.6-3.7,0.4-4.7-1c-0.4,0.4-1.1,0.9-1.5,1c-0.8,0.3-1.4,0.2-2.3,0c-1.1-0.3-1.7-0.8-2.3-1.7
		c-1.1-1.8-1.1-3.1-1.1-5.2c-0.3,0-0.5,0.2-1,0.5c-0.4,0.4-1.1,0.9-2,1.8c-1.3,1.2-2.6,3.3-4.5,3.1c-1.5-0.2-1.4-2.8-1.2-3.9
		c0.2-1.2,0.7-3.9,0.7-3.9s-8,6.3-10.2,7.5c-2.2,1.2-4.8,1.8-5.3-1.3c-0.3-1.4-0.1-3.7-0.1-3.7s-6.2,3.8-8.4,4.8
		c-2.2,1.1-6.7,2.6-8.7-0.3c-2.1-3,1.1-9.1,3.8-13.5c4.9-8.1,13.9-14.6,17.1-16.5c11-6.6,15.4-5.1,15.9-0.2c0.3,2.5-1.1,4.6-2.2,6.2
		C158.6,18.5,157.6,19.8,156.3,21.2L156.3,21.2z">
  </path>
  <path class="st0" d="M101.3,36.8c0.6-0.3,3.6-2.3,5.6-4.1c2.2-2.2,5.1-6.1,4.9-6.3c-1.2-0.5-4.4,1.3-6.6,3.1
		c-1.9,1.5-3.9,3.8-4.9,5.9c-0.3,0.6-0.8,1.5-0.2,1.8C100.5,37.3,101.3,36.8,101.3,36.8L101.3,36.8z M32.4,34.5
		c-0.6,1.3,0.3,1.6,0.7,1.5c0.6-0.1,2.5-1.4,3.1-2c0.6-0.6,2.8-2.7,4.3-4.7c1.2-1.5,2.3-3.4,2.7-4.2c0.4-0.7,0-0.8-0.7-0.5
		c-2,0.8-4.1,2.5-5.2,3.5C36.5,28.9,33.6,31.8,32.4,34.5L32.4,34.5z M98.1,31c3-4.8,6.9-7.6,11.5-8.7c1.6-0.4,3.9-0.5,5,0
		c0.6,0.3,0.7,1,1.1,1.6c0.4,0.7,0.6,1.2,1.1,1.9c0.4,0.6-4.5,5.2-4.7,8.3c-0.1,2,2.8,7.5,10.2,5.8c1.5-0.3,2.5,3.5,1.2,3.9
		c-0.4,0.2-1.8,0.4-3.7,0.4c-4.3,0.1-10-3-10.8-7.1c0,0-3.4,4-6.7,5.6c-1.9,1-5.2,1.5-6.4-1c-1.8,0.7-4.7,1.7-6,1.1
		c-4-1.7-2.5-6.8-2.5-8.6c0,0-1.4,1.5-2.6,2.7c-1.1,1.2-1.8,2.1-2.6,2.9c-1.3,1.2-2.2,3.5-3.8,3.5c-1.5,0-2.3-1.7-1.9-3.4
		c0.3-1.8,3.5-9.1,3.6-10.6c-0.8,0.3-0.8,0.4-1.6,1.1c-0.9,0.7-3.6,3.5-4.9,4.7c-1.4,1.2-5,4.7-5.8,5.4c-1,0.9-2.7,3.1-3.5,3.1
		c-0.8,0-1.3-0.5-2.4-1.8c-0.3-1.4,0.3-3.8,0.5-5.1c0.2-1.3,0.5-2,0.7-2.6c0.2-0.7,0.3-1.7-0.7-0.7c-0.8,0.7-1.7,2.1-2.4,2.7
		c-0.8,0.6-2.7,2.7-3,3.1c-0.4,0.4-2.1,2.6-2.5,3c-0.5,0.3-3,2.1-3.6-1c-0.7-3.1,2.5-9.5,2.2-9.8c-0.4-0.2-3.8,3.3-5.1,4.5
		c-1.2,1.3-4.2,3.9-4.5,4.1c-3.2,2.9-4,3.2-5.8,1.8c-0.5-0.4-0.4-1.9-0.7-2.6c-0.6-0.3-3.6,3.1-5.3,3.8c-1.7,0.8-3.6,0.2-4.2-1.5
		c-1.3,0.7-2.6,1.7-5.1,2.1c-2.5,0.3-4.5-1-4.5-5.6c-0.1-4.7,5.2-16.4,4.8-16.4c-0.4,0-7.5,7.6-9.8,10.8C10.6,35.6,4.5,45.5,4.2,46
		c-0.4,0.5-0.6,1.6-2,1.6c-1.4,0-2.3-1.6-2.2-2.9c0.1-1.3,3-6.7,3.9-8.6c0.9-1.9,3.7-7.6,4.8-9.8c1.1-2.2,8.7-15.1,9.4-16.3
		C18.8,9,24,0.1,24.5,0c0.8-0.3,2.1,1.6,2.1,2.6c0,1.1-4.3,8.1-6.1,11.1c-3.3,5.1-6.2,10.6-6.2,10.6s4.9-5,6.6-6.6
		c1.7-1.5,2.9-2.5,2.9-2.5s1.6-1.8,2.3-1.8c0.7,0.1,2.6,1.6,2.5,3.7c0,2.2-2.2,6-3.7,9.8c-1.5,3.8-2.9,7.6-3.3,9.6
		c-0.4,1.8-0.5,2.7-0.2,2.9c0.3,0.3,3.5-0.9,6-2.5c0.5-2.6,1.8-5.2,2.7-6.6c0.9-1.4,4.3-6.1,8.3-8.6c1.8-1.1,4.2-2,5.1-2
		c2.1,0.1,2.2,1.1,2.5,1.2c0.4,0.1,1.9-1.4,2.3-1.9c0.5-0.4,1.2,0,1.8,0.5c0.5,0.5,1.6,2.2,1.1,3c-0.6,0.8-3.5,4.5-4.5,5.7
		c-1.1,1.1-4.7,6.1-4.4,6.5c0.3,0.4,5.9-4.6,8-6.8c2.8-2.7,6.8-7.2,7.4-7.2c0.6,0,2.3,1.9,2.3,3.7c0,1.9-3.1,8.3-3.1,8.3
		s1.9-1.8,2.7-2.5c0.8-0.8,4.2-4.5,4.8-5.3c0.7-0.7,2.1-2.4,2.7-2.5c0.7-0.1,2.8,1.3,2.5,3.4C69.4,28,67,35.1,67,35.1
		s1.8-1.4,4.8-3.9c1.5-1.3,3.7-3.7,5-4.8c1.2-0.9,4.5-4,5.5-4c1,0,2.6,2.2,2.6,4c0.1,1.7-1.4,5.2-1,5.2c0.3,0,6.9-7.3,7.6-8.1
		c0.7-0.8,1.9,0.5,2.7,1.5c0.7,0.9-0.4,3.8-1.5,6.1c-0.6,1.5-2.5,7.4-1.1,7.6c1.3,0.2,3.6-0.8,3.9-1C95.4,36.9,96.7,33.3,98.1,31
		L98.1,31z">
  </path>
 </g>
</svg>