<?xml version="1.0" encoding="UTF-8"?>
<svg xmlns="http://www.w3.org/2000/svg" xmlns:xlink="http://www.w3.org/1999/xlink" version="1.1" id="Layer_1" x="0px" y="0px" viewBox="0 0 152.4 43.2" style="enable-background:new 0 0 152.4 43.2;" xml:space="preserve">
<style type="text/css">
	.st0{fill:#569BBE;}
	.st1{fill:#00426C;}
</style>
<g>
	<g>
		<g>
			<path class="st0" d="M67.1,20.5c0,0,0,0.1,0,0.1c0,0,0,0.1,0.1,0.1l3.4,1.4c0.1,0,0.2,0,0.2-0.1c0.1-0.1,7.6-13,22.3-7.3     c0.1,0,0.2,0,0.2-0.1l0.1-0.2c0-0.1,0-0.2-0.1-0.2C93.1,14.3,77,5.8,67.1,20.5z"></path>
			<path class="st1" d="M11.6,31.1V13.4c0-3.1-0.4-3.6-3-3.6V8.8h9.8v0.9c-2.6,0-3,0.5-3,3.6v16.2c0,4.6-2.8,6.8-6.4,6.8     c-2.7,0-5-1.6-5-3.8c0-0.7,0.5-1.3,1.3-1.3c0.7,0,1.3,0.6,1.3,1.3c0,1.1,0.7,2.4,2.4,2.4C10.7,35,11.6,33.8,11.6,31.1z"></path>
			<path class="st1" d="M37.6,9.7V8.8h9.8v0.9c-2.6,0-3,0.5-3,3.6v9.1c0,3.1,0.4,3.6,3,3.6H51c2.9,0,3.2-0.7,3.6-2.4l0.2-0.6h0.9     l-0.2,4.4H37.6v-0.9c2.6,0,3-0.5,3-3.6v-9.6C40.5,10.3,40.2,9.7,37.6,9.7z"></path>
			<path class="st1" d="M56.8,26.6c2.6,0,3-0.5,3-3.6v-9.6c0-3.1-0.4-3.6-3-3.6V8.8h10.3c7.2,0,10.4,4.2,10.4,9.3     c0,5.1-3.1,9.3-10.4,9.3H56.8V26.6z M63.7,22.6c0,3,0.4,3.5,3,3.5H67c5,0,6.1-4.4,6.1-7.9c0-3.5-1-7.9-6.1-7.9     c-0.3,0-3.3,0-3.3,0V22.6z"></path>
			<path class="st1" d="M144.6,13.4c0-3.1-0.4-3.6-3-3.6V8.8h7.4v0.9c-2.6,0-3,0.5-3,3.6v14.7h-0.8l-12.9-15.4V23     c0,3.1,0.4,3.6,3,3.6v0.9h-7.4v-0.9c2.6,0,3-0.5,3-3.6v-9.6c0-3.1-0.4-3.6-3-3.6V8.8h6.2l10.4,12.4V13.4z"></path>
			<path class="st1" d="M102.5,8.8v0.9c2.2,0,2.7,0.7,2.2,2.4l-2.8,8.8L98,8.8h-0.7l-3.8,12l-2.8-8.8C90,10.3,90.5,9.7,93,9.7V8.8     h-9.8v0.9c2.6,0,3.1,0.6,3.7,2.7l5,15.6h0.7L96.5,16l3.9,12.1h0.7l5-15.6c0.6-1.8,1-2.5,2.8-2.7V8.8H102.5z"></path>
			<path class="st1" d="M125.9,23.1l-0.2,0.6c-0.4,1.7-0.7,2.4-3.6,2.4h-2.8c-2.6,0-3-0.5-3-3.6v-4.1h1.7c3.1,0,3.6,0.4,3.6,3h0.9     V14h-0.9c0,2.6-0.5,3-3.6,3h-1.7v-6.7h4.8c2.9,0,3.2,0.7,3.6,2.4l0.2,0.6h0.9l-0.2-4.4h-15.2v0.9c1.8,0.1,2.1,0.9,2.1,3.6V23     c0,3.1-0.4,3.6-3,3.6v0.9h17.1l0.2-4.4H125.9z"></path>
			<path class="st1" d="M35.4,23.1l-0.2,0.6c-0.4,1.7-0.7,2.4-3.6,2.4h-2.8c-2.6,0-3-0.5-3-3.6v-4.1h1.7c3.1,0,3.6,0.4,3.6,3h0.9V14     h-0.9c0,2.6-0.5,3-3.6,3h-1.7v-6.7h4.8c2.9,0,3.2,0.7,3.6,2.4l0.2,0.6h0.9l-0.2-4.4H19.9v0.9c1.8,0.1,2.1,0.9,2.1,3.6V23     c0,3.1-0.4,3.6-3,3.6v0.9h17.1l0.2-4.4H35.4z"></path>
			<g>
				<path class="st1" d="M147.4,26.6c0-0.8,0.7-1.5,1.5-1.5c0.8,0,1.5,0.7,1.5,1.5c0,0.8-0.7,1.5-1.5,1.5      C148,28.1,147.4,27.4,147.4,26.6z M150,26.6c0-0.7-0.5-1.2-1.1-1.2c-0.6,0-1.1,0.5-1.1,1.2c0,0.7,0.5,1.2,1.1,1.2      C149.5,27.8,150,27.3,150,26.6z M148.3,25.7h0.6c0.4,0,0.6,0.1,0.6,0.5c0,0.3-0.2,0.4-0.4,0.5l0.5,0.7h-0.3l-0.4-0.7h-0.2v0.7      h-0.3V25.7z M148.6,26.4h0.3c0.2,0,0.3,0,0.3-0.3c0-0.2-0.2-0.2-0.3-0.2h-0.3V26.4z"></path>
			</g>
		</g>
	</g>
</g>
</svg>
