<?xml version="1.0" encoding="UTF-8"?>
<svg width="360" height="104.23" version="1.1" viewBox="0 0 360 104.23" xmlns="http://www.w3.org/2000/svg" xmlns:cc="http://creativecommons.org/ns#" xmlns:dc="http://purl.org/dc/elements/1.1/" xmlns:rdf="http://www.w3.org/1999/02/22-rdf-syntax-ns#">
 <metadata>
  <rdf:RDF>
   <cc:Work rdf:about="">
    <dc:format>image/svg+xml</dc:format>
    <dc:type rdf:resource="http://purl.org/dc/dcmitype/StillImage"/>
    <dc:title/>
   </cc:Work>
  </rdf:RDF>
 </metadata>
 <defs>
  <clipPath id="4q1xa">
   <path d="m17.27 1.41h79.44v26.59h-79.44z"/>
  </clipPath>
 </defs>
 <g transform="matrix(3.7225 0 0 3.7225 .00021169 .00060883)">
  <g clip-path="url(#4q1xa)">
   <path d="m78.748 10.556c-0.574-0.02-0.957-0.243-1-0.625-0.09-0.567 0.508-1.227 1.506-1.315 0.326-0.03 0.6 0.058 0.768 0.255 0.247 0.266 0.266 0.683 0.064 1.038-0.24 0.418-0.725 0.651-1.338 0.647zm-32.337 4.596c0.73-0.377 1.594-0.625 1.716-0.377 0.137 0.26-0.427 0.538-0.987 0.863-1.633 1.078-2.089 2.982-1.662 4.781 0.612 2.477 3.629 3.952 7.04 3.441 3.016-0.45 6.854-2.901 5.648-6.859-0.494-1.553-1.456-2.764-2.394-3.941-0.959-1.203-1.995-2.447-2.5-4.099-1.17-3.8 1.22-6.754 5.992-7.463 3.228-0.48 6.65 1.044 7.38 3.394 0.467 1.569-0.448 3.096-2.063 3.782-0.484 0.204-0.83 0.187-0.929-0.02-0.11-0.198 0.085-0.528 0.494-0.785 0.835-0.547 1.269-1.647 0.94-2.823-0.29-0.91-0.96-1.764-2.149-2.197-3.38-1.205-5.804 0.436-6.64 1.427-0.58 0.69-1.143 1.907-0.641 3.335 0.582 1.641 1.512 2.763 2.49 3.943 1.028 1.252 2.1 2.534 2.73 4.487 0.566 1.777 0.142 3.819-1.206 5.423-1.466 1.751-3.884 2.961-6.849 3.396-4.074 0.61-8.196-1.332-9.139-4.308-0.678-2.274 0.487-4.187 2.73-5.4zm50.207 4.656c0.16 0.103 0.122 0.461-0.191 0.904-0.736 1.013-2.2 2.11-4.573 2.207-2.193 0.071-3.254-1.37-3.532-2.488-3.302 3.855-8.525 3.04-8.639-0.448-2.25 2.936-3.544 2.98-4.498 2.964-2.24-0.083-2.114-1.983-2.114-1.983-1.142 1.003-2.422 1.136-2.547 0.977-0.145-0.179 0.054-0.384 0.536-0.61 1.513-0.701 2.405-2.165 3.173-3.69 0.371-0.754 2.281-4.525 2.641-5.27h2.126c-0.886 1.851-3.17 6.742-3.17 6.742-0.436 1.098-1.286 2.66-0.102 2.8 1.5 0.166 3.194-2.105 4.285-4.412 1.279-2.625 3.352-5.19 6.196-5.19 0.686 0 1.39 0.413 1.707 0.776 0.49 0.538 0.583 1.278 0.166 1.874-0.567 0.83-1.865 0.9-2.209 0.194-0.179-0.342-0.022-0.766 0.452-1.035 0.12-0.063 0.44-0.192 0.62-0.233-0.026-0.173-0.175-0.585-0.89-0.669-1.913-0.227-4.52 4.579-4.108 6.908 0.145 0.728 0.613 1.39 1.402 1.546 2.272 0.48 3.94-1.461 5.423-4.624 1.22-2.53 3.368-4.665 5.896-4.665 0.962 0 1.63 0.405 1.827 1.11 0.344 1.282-0.991 3.677-4.965 4.77-0.144 0.033-0.32 0.071-0.532 0.127-0.082 0.12-0.17 0.337-0.204 0.453-0.23 0.722-0.219 1.608 0.31 2.196 0.364 0.394 0.924 0.594 1.658 0.594 1.458 0 2.146-0.496 2.881-1.15 0.258-0.235 0.789-0.794 0.975-0.675zm-4.859-3.543c-0.077 0.141-0.286 0.551-0.461 0.992 2.56-0.566 4.445-2.32 4.056-3.55-0.097-0.258-0.321-0.403-0.684-0.39-1.155 5e-3 -2.568 2.187-2.91 2.948zm-21.452-3.833c1.849 0.412 2.637 1.893 2.153 4.072-0.702 3.343-4.027 6.536-7.105 6.178-0.697-0.078-1.471-0.411-1.889-1.01-0.05 0.1-0.177 0.452-0.255 0.61l-1.554 3.25-1.149 2.468h-2.171l0.693-1.498 3.486-7.54c1.474-3.294 3.03-7.11 3.03-7.11h2.212s-0.566 1.118-0.654 1.379c0.333-0.216 0.704-0.416 0.925-0.512 0.249-0.111 1.41-0.486 2.278-0.287zm0.358 3.318c0.316-1.315 0.1-2.134-0.62-2.294-0.794-0.186-1.682 0.106-2.517 0.846-1.835 1.627-3.317 5.39-2.72 6.876 0.116 0.323 0.346 0.528 0.66 0.594 1.947 0.43 4.549-3.366 5.197-6.022zm-33.408 1.712c-0.986 2.376-1.264 3.488-1.015 4.016 0.215 0.463 0.829 0.266 1.148 0.155 0.885-0.318 2.002-1.317 2.68-2.592 0.202-0.326 0.491-0.429 0.61-0.354 0.127 0.082 0.15 0.288 0.055 0.537-0.499 1.26-2.12 3.728-4.552 3.661-1.773-0.054-2.28-1.355-2.44-2.013-0.13 0.151-0.532 0.521-0.532 0.521-0.893 0.813-1.762 1.4-2.797 1.584-1.285 0.222-2.58-0.437-2.705-2.222-0.13 0.138-0.94 0.868-0.94 0.868-0.7 0.552-1.884 1.481-3.47 1.367-1.93-0.137-2.429-1.512-2.386-3.16-0.966 0.754-2.243 1.354-2.51 1.47-0.244 0.101-0.77 0.37-1.005 0.248-0.336-0.211 0.064-0.557 0.34-0.715 0.257-0.144 2.278-1.66 3.48-2.805 0.057-0.062 0.192-0.418 0.42-1.083 1.088-3.162 4.135-12.503 8.837-12.453a1.556 1.556 0 0 1 1.292 0.669c1.258 1.781-2.328 7.59-8.107 12.301-0.015 0.029-1.366 3.188-0.67 4.066 0.126 0.144 0.326 0.245 0.539 0.293 1.857 0.34 3.32-2.064 4.842-4.265 1.706-2.343 3.487-4.72 6.046-4.984 1.026-0.112 1.651 0.168 2.04 0.616 0.138 0.166 0.285 0.395 0.379 0.564 0.079-0.21 4.017-8.83 4.017-8.83h2.051zm-11.922-4.274a85.948 85.948 0 0 0-0.817 2.082c2.431-1.926 7.264-8.118 6.377-9.251-0.058-0.073-0.156-0.163-0.391-0.143-1.732 0.12-3.726 4.21-4.83 6.574zm5.334 8.561c1.902 0.11 4.99-5.07 5.05-7.222 0.016-0.733-0.334-0.923-0.61-0.949-1.16-0.118-2.449 1.226-3.081 2.038-1.469 1.885-2.671 4.782-2.035 5.774 0.143 0.215 0.377 0.341 0.676 0.36z" fill="#a30a27"/>
  </g>
  <path d="m17.98 17.384c-4.034 6.396-10.69 9.31-14.848 6.61-4.116-2.684-4.184-10.076-0.152-16.376 4.087-6.392 10.744-9.314 14.85-6.613 4.164 2.69 4.236 10.095 0.149 16.379m-0.876-15.494c-3.104-1.903-8.5 1.285-11.979 7.218-3.54 5.819-3.856 12.179-0.757 14.08 3.152 1.894 8.534-1.286 12.027-7.201 3.541-5.833 3.85-12.2 0.709-14.097" fill="#a30a27"/>
 </g>
</svg>
