<svg width="91" height="125" viewBox="0 0 91 125" fill="none" xmlns="http://www.w3.org/2000/svg">
<g clip-path="url(#clip0_570_54)">
<path d="M35.3024 124.195C34.9835 123.79 34.5514 123.691 34.1767 123.51C32.7405 122.814 31.2571 122.219 30.2754 120.824C29.8953 120.283 29.2819 119.908 28.689 119.556C27.8781 119.073 27.2026 118.441 26.5669 117.724C25.625 116.663 24.3013 116.137 22.9874 115.688C22.1425 115.399 21.4061 115.038 20.8137 114.34C20.1625 113.572 19.1085 113.383 18.33 112.777C18.1886 112.667 17.924 112.695 17.8463 112.492C17.4072 111.344 16.4308 111.119 15.3673 110.902C14.7434 110.774 14.1856 110.374 14.2393 109.536C14.3602 107.647 14.383 105.771 13.1755 104.137C13.0901 104.021 13.081 103.821 13.0943 103.665C13.3387 100.801 12.6075 97.9846 12.6873 95.1252C12.7178 94.0315 12.5076 92.9585 12.1889 91.8789C11.778 90.4872 10.5983 89.9774 9.59356 89.3702C8.50758 88.714 7.64428 87.8453 7.65637 86.6148C7.66259 85.9826 7.49718 85.4015 7.33044 84.8294C6.20628 84.6421 5.57116 83.5271 5.97623 82.367C6.17575 81.7956 6.24884 81.2389 6.24172 80.6508C6.23307 79.937 6.29256 79.2524 6.52548 78.5475C6.74025 77.8976 6.69336 77.1924 6.37632 76.4763C4.82827 72.9798 2.77275 69.7537 1.06768 66.3437C0.4422 65.0928 0.129881 63.7702 0.136832 62.3221C0.155107 58.515 0.299464 54.7161 0.579961 50.9219C0.747099 48.6611 0.831673 46.3784 1.23001 44.1551C1.62 41.9783 1.7727 39.7718 2.2386 37.5997C2.53238 36.23 2.57291 34.7904 2.89496 33.3936C3.39149 31.2399 4.29862 29.2565 5.21105 27.2716C5.63002 26.3602 6.10592 25.4792 6.27293 24.4748C6.28836 24.382 6.33407 24.2901 6.38232 24.2074C9.04591 19.6456 11.8007 15.155 15.9444 11.7248C17.5469 10.3982 19.5278 9.81338 21.3423 8.89994C22.797 8.16761 24.4635 7.83609 25.6482 6.56521C25.9457 6.24609 26.492 6.07486 26.9492 6.00775C27.6924 5.89866 28.3751 5.56191 28.854 5.11502C30.0239 4.02325 31.5218 3.88881 32.9139 3.45066C35.3368 2.68806 37.8814 2.29272 40.1348 1.0252C40.3433 0.907927 40.5646 0.885728 40.7957 0.93181C43.0069 1.37273 45.2445 1.5362 47.4914 1.70334C50.3306 1.91454 53.1539 2.34015 55.9832 2.67964C56.139 2.69834 56.3322 2.73083 56.4333 2.83174C58.1265 4.52257 60.4662 4.54566 62.5557 5.19602C63.7745 5.57536 65.0973 5.64359 66.1458 6.49247C66.6069 6.86571 67.1332 7.05222 67.7163 7.2013C69.932 7.76774 71.6593 9.23983 73.4919 10.4916C77.1073 12.961 80.1381 16.0612 82.9159 19.4236C84.4935 21.3333 85.432 23.6067 86.6496 25.7224C87.7258 27.5925 88.0932 29.5154 88.447 31.5433C88.7309 33.1712 89.2418 34.7627 89.7094 36.3535C89.869 36.8965 89.924 37.4284 89.9476 37.982C90.1542 42.8274 89.2428 47.6468 89.5856 52.4896C89.7246 54.4537 89.8953 56.4204 90.2137 58.3722C90.8958 62.5535 91.0911 66.6817 88.933 70.5931C88.4807 71.4129 88.3458 72.4232 88.1471 73.3631C87.9718 74.1928 87.8117 74.9729 87.2611 75.6906C86.8962 76.1662 86.7961 76.8709 86.66 77.4912C86.1941 79.6151 85.4742 81.6261 84.2682 83.4552C83.6107 84.4526 82.9776 85.4551 82.6453 86.6444C82.4142 87.4714 81.8853 88.1373 81.0441 88.6073C79.9494 89.2189 78.718 89.6053 77.7811 90.5053C77.4164 90.8556 76.9028 90.5704 76.4084 90.6387C75.7062 92.5986 75.8085 94.6357 75.9245 96.6704C76.0337 98.5868 75.9713 100.485 75.5838 102.376C75.4088 103.229 75.3308 104.123 75.6867 104.968C75.8696 105.402 75.7411 105.709 75.4238 106.007C73.484 107.832 71.6023 109.723 69.591 111.465C68.6558 112.275 67.4357 112.731 66.4365 113.51C65.9671 113.877 65.244 113.213 64.6655 113.675C64.6748 114.097 65.2192 114.135 65.249 114.613C64.534 115.846 63.3996 116.81 62.2818 117.78C61.0105 118.884 60.2398 120.483 58.7215 121.342C58.3894 121.53 57.8956 121.74 57.8228 122.028C57.4079 123.667 56.0967 123.558 54.8906 123.61C53.6248 123.665 52.3733 123.772 51.0895 124.151C45.8188 124.195 40.6064 124.195 35.3024 124.195ZM10.2956 62.0349C9.76912 63.2597 8.86714 64.2284 7.87894 65.0386C6.71576 65.9923 6.83756 67.0811 7.19097 68.248C7.52703 69.3577 8.40655 69.8929 9.58681 69.85C9.87502 69.8396 10.1806 69.8011 10.4503 69.876C11.4812 70.1623 12.4163 70.8911 13.5881 70.5121C13.6918 70.4786 13.884 70.5265 13.953 70.607C14.6944 71.4722 15.7479 71.3703 16.7176 71.5126C17.962 71.6952 19.2079 71.9887 20.3562 71.094C20.694 70.8308 21.1967 70.6645 21.6264 70.6592C22.3868 70.6499 22.9641 70.4218 23.5357 69.906C24.1631 69.3398 25.8908 69.9863 25.6418 70.5915C25.1032 71.9006 25.5294 72.8066 26.2723 73.7832C26.4316 73.9927 26.4629 74.3915 26.7468 74.458C27.9482 74.7394 28.2886 75.4949 27.9469 76.5815C28.8468 77.017 29.1968 76.6335 29.2734 75.8706C29.3318 75.2889 29.3259 74.701 29.3604 74.1167C29.379 73.8017 29.4761 73.5182 29.8657 73.5347C30.2845 73.5524 30.2966 73.8704 30.2638 74.173C30.2184 74.593 30.1441 75.01 30.0807 75.428C30.0283 75.7741 29.8496 76.1755 30.2321 76.411C30.7302 76.7177 30.5693 77.1076 30.483 77.5214C29.8995 80.3186 28.6365 82.8778 27.6721 85.5412C27.5023 86.0102 27.2615 86.4307 27.7298 86.8615C28.1922 87.2868 28.5597 87.927 29.3394 87.31C29.5584 87.1367 29.9076 87.2078 30.1662 87.4004C30.3942 87.5702 30.6238 87.6488 30.8726 87.4399C31.1402 87.2152 31.1229 86.9721 31.0066 86.6563C30.6937 85.807 30.8801 84.9191 30.8789 84.0468C30.8785 83.8042 30.999 83.5881 31.2689 83.5621C31.6201 83.5282 31.7099 83.7963 31.7253 84.0666C31.7547 84.5861 31.7308 85.109 31.7708 85.6273C31.8154 86.2042 31.9653 86.7268 32.7278 86.3571C33.1835 86.1361 33.4278 86.4644 33.6983 86.6967C34.4789 85.9201 34.5861 85.381 34.2221 84.1987C33.9383 83.2771 33.9622 83.0784 34.5037 82.5033C34.6922 83.4849 34.9116 84.3908 35.0326 85.3096C35.2504 86.9636 35.673 87.2091 37.197 86.4547C37.4898 86.3097 37.7457 86.1437 38.1075 86.2415C39.0671 86.5009 39.3778 86.2564 39.4583 85.2717C39.4907 84.8754 39.3177 84.4162 39.7351 84.1043C40.1706 84.196 40.3181 84.498 40.3543 84.8814C40.3813 85.1664 40.4806 85.4257 40.7962 85.4282C41.5485 85.4341 42.3581 85.75 42.9878 85.0167C43.3611 84.5819 43.7519 84.5837 44.109 85.0798C44.4602 85.5678 44.9566 85.5139 45.433 85.3457C45.8345 85.204 46.2231 85.0391 46.6582 85.0703C47.2532 85.1128 47.4553 84.8234 47.4607 84.2511C47.4645 83.8515 47.2748 83.3592 47.7424 83.0542C48.15 83.3531 47.7934 83.8644 48.2304 84.2136C49.1819 83.6669 49.839 83.9396 50.0645 85.1022C50.1031 85.3015 50.2787 85.4267 50.497 85.4391C51.6845 85.5065 52.807 85.9851 54.0373 85.8814C54.8437 85.8135 55.1722 85.6003 55.0305 84.7738C54.9011 84.0195 55.0271 83.28 55.2441 82.3518C55.6856 82.9212 55.5935 83.3891 55.5751 83.8105C55.5279 84.8934 55.5776 85.8553 57.0099 85.9682C57.2662 85.9883 57.5323 86.2328 57.742 86.4291C58.3159 86.9666 59.0132 87.0052 59.6593 86.7673C60.5933 86.4234 61.2999 86.7192 61.9716 87.3076C62.2582 87.5586 62.5088 87.8611 62.903 87.8959C63.2585 87.68 63.2669 87.3445 63.3216 87.0248C63.5752 85.543 62.7302 84.2047 62.7716 82.7393C62.7884 82.1441 62.6395 81.5255 62.2486 80.9965C61.5402 80.0378 61.1849 79.0034 61.777 77.841C61.8594 77.6791 61.815 77.5421 61.7602 77.381C61.4922 76.5941 61.2475 75.7994 60.9837 75.0111C60.8646 74.6552 60.5464 74.241 61.0684 74.0081C61.5161 73.8082 61.7348 74.2474 62.0021 74.5271C62.5041 75.0523 62.2929 75.822 62.6003 76.3632C62.9097 76.4357 63.0462 76.2898 63.16 76.129C63.9973 74.9454 65.1228 74.0578 66.2178 73.1383C67.1578 72.349 68.1908 71.772 69.4478 71.6789C70.6878 71.5871 71.9093 71.981 72.9799 72.3763C73.799 72.6789 74.1608 72.6974 74.6746 72.134C74.8071 71.9888 74.9819 71.8933 75.2639 71.9575C75.3165 72.054 75.4558 72.1908 75.4541 72.3259C75.4418 73.3224 76.1301 73.3161 76.7061 73.0559C77.3096 72.7832 77.8932 72.785 78.504 72.771C78.8285 72.7635 79.1753 72.8044 79.4399 72.575C80.5929 71.5752 82.1733 71.2435 83.2466 70.1124C83.6457 69.6918 83.9707 69.9345 84.2888 70.3128C84.4972 70.5608 84.3842 70.9247 84.6248 71.193C85.8429 69.8148 86.0625 68.1249 86.4903 66.5235C86.603 66.1017 86.3022 65.8838 85.917 65.758C84.8451 65.4079 83.7619 65.0829 82.7167 64.664C82.1537 64.4384 81.3638 64.5385 81.0754 63.8607C80.4547 62.402 80.0322 60.8537 78.4142 60.0604C77.9435 59.8297 77.7384 59.2101 77.747 58.6174C77.7529 58.2068 77.7481 57.796 77.7481 57.3236C77.3058 57.5447 77.0372 58.0422 76.5574 57.7457C76.3019 57.5879 76.3487 57.2875 76.4278 57.0331C76.8301 55.7389 77.2793 54.4578 77.6367 53.1516C78.0491 51.6441 79.1492 50.2929 78.866 48.6388C78.6698 47.4923 78.5808 46.3399 78.4072 45.2018C78.3164 44.6059 78.2375 43.9244 77.8988 43.3537C77.0012 41.8413 76.5839 40.1396 76.0468 38.4901C75.896 38.027 75.795 37.4433 76.3123 36.9525C76.722 38.0167 76.8985 39.0953 77.512 39.9965C77.7671 39.8495 77.6858 39.684 77.6671 39.5332C77.5871 38.8876 77.4824 38.2438 77.4348 37.5959C77.409 37.2431 77.4325 36.7948 77.9007 36.7642C78.326 36.7364 78.3686 37.1511 78.391 37.4748C78.4382 38.1545 78.7083 38.8025 78.6505 39.499C78.6277 39.7745 78.7365 40.0162 79.088 39.9982C79.7747 39.2264 79.4072 38.0197 80.1656 37.2942C80.7766 37.4224 80.7823 37.8573 80.7942 38.2878C80.8444 40.1134 80.8632 41.8671 80.3004 43.7127C79.6942 45.7006 80.4997 47.8559 80.6508 49.9183C81.3974 50.0112 81.3249 49.2082 82.0353 48.9322C81.836 49.9707 82.6285 50.3547 83.024 50.9955C83.1376 51.1796 83.0522 51.5054 83.0136 51.7595C82.9666 52.0694 82.8727 52.3722 82.7751 52.7772C83.5022 52.5173 83.6274 51.6931 84.446 51.479C84.4938 52.8737 83.5462 54.0117 83.6938 55.3167C84.1238 55.412 84.2745 54.837 84.6572 54.9761C85.1269 55.4229 84.5044 56.0889 84.9849 56.5099C85.456 56.5208 85.6221 55.8946 86.1767 56.0411C86.4746 57.0645 85.1561 57.8998 85.7812 58.9788C86.1275 59.1948 86.6296 58.9042 86.9923 59.3317C86.77 60.1952 86.1341 60.9507 86.097 61.9033C86.9059 62.2119 86.9001 62.2105 86.7012 63.0169C86.6553 63.2032 86.6464 63.4033 86.6504 63.5964C86.6639 64.2622 87.1323 64.576 87.6694 64.7447C88.2943 64.941 88.3757 64.321 88.4659 63.9871C88.8347 62.6218 88.7779 61.2087 88.5394 59.8429C88.2461 58.1633 87.7646 56.5089 87.9001 54.7865C87.9704 53.8922 88.5575 52.9878 87.7255 52.1567C87.6943 52.1255 87.7064 52.0244 87.7297 51.9692C88.1166 51.0513 87.7757 50.2572 87.3059 49.4895C87.1041 49.1597 87.0843 48.7906 87.1497 48.4481C87.6974 45.5794 87.4189 42.679 87.5166 39.7935C87.5262 39.5109 87.6382 39.2267 87.7309 38.9529C88.0482 38.017 87.9157 35.5987 87.4559 34.7718C87.281 35.7891 87.4819 36.8567 86.7767 37.7472C86.3899 37.3396 86.5179 36.9639 86.5163 36.6247C86.5041 34.0534 86.5126 31.482 86.5022 28.9107C86.5006 28.5317 86.6204 28.0586 85.9379 27.8718C85.7247 29.2515 86.6181 30.5528 86.0301 31.9114C85.681 31.4636 85.4257 31.0694 85.3707 30.5535C85.0644 27.6831 84.5429 24.8673 83.1276 22.2986C82.4318 21.0358 81.9209 19.5336 80.9888 18.5628C77.4291 14.8555 73.4566 11.6051 68.875 9.18251C68.4788 8.97298 68.0653 8.77287 67.6362 8.65243C65.6443 8.09327 63.6908 7.41433 61.8366 6.50835C59.9402 5.58175 57.9984 5.00495 55.8724 5.10043C55.2922 5.12649 54.6982 5.17425 54.129 4.97851C53.1149 4.62984 52.1135 4.56738 51.0991 5.01064C50.7413 5.167 50.262 5.2453 49.9982 4.91148C49.297 4.02413 48.5951 4.28904 47.9112 4.8504C46.5213 5.9913 45.0694 4.5333 43.6652 4.97664C43.596 4.99848 43.5158 4.69715 43.2542 4.71876C43.1291 4.8501 42.9772 5.01524 42.8194 5.17445C42.1555 5.84388 41.5002 6.52219 40.8215 7.17622C40.348 7.63252 39.8203 7.58948 39.3166 7.21902C38.8405 6.86895 39.0159 6.42442 39.1695 5.98393C39.2386 5.78569 39.4876 5.6415 39.3659 5.37158C38.0228 6.87119 37.2203 8.77534 35.7036 10.1532C35.7066 8.68911 36.4018 7.45369 36.8525 6.0606C36.3362 6.37919 35.996 6.75637 35.6798 7.16082C34.7219 8.38598 33.7253 9.58054 33.0492 11.0043C32.8946 11.3297 32.5793 11.7314 32.1196 11.4623C31.708 11.2213 32.039 10.8962 32.1555 10.6153C32.7679 9.13881 33.3814 7.66278 33.9946 6.18658C32.8246 7.62786 31.8593 9.17525 30.9506 10.7636C30.5481 11.4672 30.2209 12.3318 29.1919 12.546C28.9347 11.4395 29.4638 10.5504 29.5574 9.54331C28.3839 10.7763 28.0972 12.5671 26.7924 13.6397C26.4147 13.2993 26.7329 12.7849 26.2792 12.6399C26.0685 12.6211 25.9717 12.7515 25.8766 12.8868C25.4245 13.5299 25.1027 14.2333 24.87 14.9837C24.7666 15.3172 24.5401 15.5742 24.1524 15.4997C23.7551 15.4235 23.8037 15.1021 23.8423 14.7987C23.87 14.5812 23.9392 14.3344 23.5424 14.1923C23.1772 14.8874 22.7866 15.5821 22.4443 16.2999C22.2303 16.7486 21.9891 17.1725 21.436 16.9312C20.8894 16.6928 21.1373 16.2408 21.2964 15.8436C21.5576 15.1918 21.492 14.5124 21.5646 13.5876C20.679 14.8315 20.795 16.2422 19.748 17.4432C19.3021 15.7258 20.3416 14.2848 19.9027 12.8356C19.6448 12.9021 19.5495 13.0573 19.465 13.2454C18.9756 14.3335 18.4717 15.4151 17.9827 16.5035C17.8339 16.8346 17.6272 17.0393 17.2376 16.9907C16.7816 16.9338 16.8145 16.5879 16.7774 16.2614C16.7473 15.9961 16.9133 15.6846 16.6167 15.4487C16.4191 15.7639 16.1617 16.0181 16.1413 16.4066C16.0804 17.5613 15.6095 18.5966 15.2223 19.6637C15.0013 20.2729 14.7011 20.5082 14.0505 20.5949C13.3482 20.6885 12.4246 20.8035 12.2991 21.6888C12.2025 22.3707 11.8897 22.9632 11.786 23.6391C11.595 24.8835 11.3214 24.9992 10.1712 24.7098C9.75905 24.606 9.53594 24.7544 9.20132 25.0734C7.92637 26.2887 7.60598 28.0051 6.73503 29.4221C6.31142 30.1113 5.59512 30.7365 5.46774 31.47C5.09242 33.631 3.96709 35.551 3.65364 37.7262C3.42423 39.3182 2.96932 40.8749 2.84679 42.491C2.76208 43.6083 3.0554 44.6671 3.21247 45.7525C3.46919 47.5267 2.60322 49.1529 2.33365 50.8641C2.09945 52.3508 1.91478 53.8488 1.7149 55.337C1.32851 58.2139 2.05253 61.0697 2.14256 63.9455C2.16919 64.7962 2.27888 65.8663 2.98335 66.607C5.01693 65.7104 3.3952 64.0501 3.75806 62.9006C4.15822 62.6412 4.44048 63.1903 4.77948 62.8341C4.92742 62.5675 4.96186 62.1696 4.81612 61.9331C4.29706 61.0909 4.56786 60.0969 4.18686 59.2087C3.93848 58.6297 4.02597 57.8478 4.13673 57.1859C4.35567 55.8776 4.95654 55.471 6.11175 55.6899C6.33566 55.4085 6.42753 54.9498 6.98933 55.0168C7.18318 55.4697 7.33358 55.9797 7.74418 56.3938C7.90404 55.929 7.75524 55.5506 7.73459 55.1668C7.69269 54.3885 7.68247 53.6083 7.67272 52.8287C7.67024 52.6307 7.73336 52.4234 7.9363 52.3425C8.13837 52.262 8.34139 52.3411 8.4388 52.5281C8.82646 53.2724 9.94419 53.4919 9.89778 54.5528C9.89663 54.579 10.0603 54.6124 10.2244 54.6693C10.4452 54.2252 10.4067 53.7922 10.3002 53.3482C9.94423 51.8651 10.3774 50.4136 10.7426 49.0421C11.1433 47.5378 11.1408 46.1196 10.8225 44.657C10.4917 43.137 10.2255 41.6109 10.207 40.0518C10.2029 39.7026 10.1763 39.3294 10.4938 39.0218C11.2734 39.2653 11.1418 40.0742 11.4002 40.6052C11.6282 41.0738 11.8878 41.0369 12.2466 40.9802C12.6984 40.9087 12.7691 40.5794 12.619 40.2536C12.2683 39.4922 12.2551 38.6522 12.1892 37.8693C12.1291 37.1558 11.543 36.4813 11.9555 35.452C12.7936 37.1164 13.2279 38.6579 13.6435 40.1958C13.9274 41.2464 14.3214 42.3597 14.2143 43.3984C14.0973 44.5328 13.9225 45.701 13.6363 46.8274C13.4596 47.5227 13.4942 48.3646 12.494 48.5366C12.2257 48.5827 12.2994 48.9044 12.2166 49.104C11.6319 50.5123 11.9764 52.0544 11.558 53.4918C11.3798 54.1043 11.4942 54.7185 11.7471 55.3726C12.0231 56.0863 12.3993 56.7951 11.9811 57.7599C11.3951 59.112 10.8577 60.5069 10.2956 62.0349ZM71.6365 83.1774C71.5378 81.0718 71.0944 78.9763 71.4548 76.857C71.4939 76.6268 71.5025 76.3766 71.2282 76.2807C70.9021 76.1667 70.6093 76.2085 70.34 76.4792C69.9139 76.9075 69.7007 77.6703 69.841 77.9697C70.2792 78.9054 69.6432 79.1095 69.1206 79.4553C68.9308 79.5809 68.7138 79.6744 68.7121 79.9494C68.7339 80.3069 69.2648 80.3237 69.2223 80.7895C68.4583 81.0233 68.0332 81.6364 67.9241 82.4037C67.8555 82.8861 67.6122 83.2537 67.409 83.6468C66.8071 84.8112 66.3863 86.0982 65.2665 86.931C65.1238 87.0372 64.9704 87.2016 65.0589 87.4334C66.2953 87.8428 66.6562 87.6319 67.0258 86.4696C67.1699 86.0166 67.2617 85.4867 67.8002 85.0153C68.2958 86.6577 67.1279 88.0957 67.6191 89.6094C67.5609 88.7162 68.1149 88.0888 68.4773 87.3849C68.6017 87.1433 68.6696 86.914 68.554 86.6431C68.248 85.926 68.3781 85.1671 68.379 84.4242C68.3795 84.0398 68.4082 83.6206 68.981 83.5991C69.2785 83.8402 69.2434 84.1794 69.2443 84.4954C69.2535 87.6846 69.2659 90.8738 69.2553 94.0629C69.2527 94.8539 68.9918 95.5925 68.5993 96.2788C67.2594 98.6221 65.5088 100.683 64.0222 102.925C63.7817 103.288 63.4989 103.509 63.0445 103.143C63.0329 102.79 63.2839 102.561 63.4705 102.309C64.6864 100.666 65.9288 99.0422 67.1144 97.378C67.5388 96.7823 68.1828 95.9261 67.7953 95.3779C67.2831 94.6533 67.5649 94.1206 67.6347 93.4814C67.7016 92.8684 67.7325 92.2507 67.7576 91.6342C67.7714 91.2948 67.7162 90.9723 67.2646 90.963C66.8233 91.3816 66.6889 91.888 66.7207 92.4701C66.7398 92.8194 66.8194 93.198 66.5528 93.5012C66.0689 94.0516 66.0178 94.6533 66.2842 95.3174C66.3944 95.592 66.3381 95.8665 66.2772 96.1664C66.0968 97.0555 65.5471 97.3854 64.7162 97.6543C63.1505 98.1608 61.6789 99.0003 59.9939 97.9638C59.6388 97.7454 58.9421 97.6787 58.6116 98.0748C58.0093 98.7964 57.3611 98.8709 56.4921 98.7019C54.7146 98.3561 53.0282 99.0418 51.3463 99.4328C49.522 99.8569 49.5232 100.052 49.4667 101.9C49.3682 105.118 49.2412 108.336 49.1241 111.554C49.1124 111.874 49.1684 112.256 48.7598 112.369C48.3538 112.482 48.0282 112.328 47.7305 112.001C47.4236 111.663 47.4541 111.286 47.453 110.904C47.4459 108.593 47.4512 106.282 47.4442 103.971C47.4431 103.615 47.452 103.246 47.365 102.906C47.2286 102.373 46.9675 101.867 47.1094 101.293C47.2629 100.672 47.9669 100.697 48.4138 100.253C47.876 99.9707 47.7678 99.326 47.2958 99.132C46.6345 98.8602 46.4207 99.6757 45.931 99.8746C45.782 99.9351 45.6276 100.066 45.4875 100.051C44.6982 99.9685 43.9858 100.167 43.3688 100.651C42.7019 99.5728 41.4691 99.59 40.8387 100.621C40.6714 100.894 40.6181 101.305 40.1783 101.135C39.6837 100.944 39.8408 100.491 39.8981 100.121C39.9484 99.7967 40.3779 99.5431 40.0831 99.1452C39.695 98.9399 39.3937 99.1072 39.1202 99.3683C38.3571 100.097 37.3959 100.495 36.483 100.979C36.1652 101.147 35.8987 101.24 35.5942 100.987C35.2713 100.72 35.105 100.408 35.1658 99.9671C35.2127 99.6275 35.5893 99.3586 35.374 98.9455C34.8746 98.84 34.5284 99.1444 34.1503 99.3854C33.633 99.7152 33.1282 100.093 32.5643 100.313C32.0388 100.517 31.4226 100.687 30.8961 100.267C30.3851 99.8595 30.4337 99.3149 30.6141 98.7549C30.8689 97.964 30.3999 97.7239 29.7941 97.5921C29.3188 98.0533 30.0585 98.4771 29.7439 98.9019C29.327 99.0036 29.0601 98.7256 28.7885 98.5167C28.56 98.3409 28.3276 98.2189 28.0785 98.3688C27.2845 98.8466 26.9172 98.3175 26.6535 97.7328C26.3244 97.0033 25.8649 96.3719 25.2691 95.8782C24.288 95.0653 23.6912 94.0171 23.131 92.9093C22.9519 92.5551 22.9755 91.9813 22.3439 91.849C22.2341 92.7216 22.5612 93.4603 22.7298 94.2335C23.2101 96.4364 23.9571 98.5505 24.6936 100.674C25.034 101.655 25.9009 102.313 26.2116 103.231C26.5109 104.115 26.9592 104.67 27.7568 105.083C28.4046 105.419 28.9209 105.918 28.8168 106.774C28.7793 107.082 28.6479 107.257 28.3274 107.254C28.0288 107.252 27.9185 107.049 27.9409 106.802C28.0086 106.054 27.4824 105.757 26.9909 105.355C26.1894 104.699 25.1022 104.375 24.5374 103.472C23.8013 102.296 23.2038 101.015 22.8758 99.6731C22.1052 96.5204 21.0251 93.4394 20.6395 90.1936C20.5796 89.6893 20.3445 89.2059 20.1904 88.7128C20.5132 93.568 21.0361 98.3674 22.7896 102.986C21.9348 102.991 21.5383 102.35 21.1487 101.734C20.9441 101.41 20.8141 101.039 20.6527 100.688C19.8605 98.9664 19.125 97.2466 19.301 95.2642C19.3954 94.2008 19.5004 93.0628 19.2281 92.0595C18.7726 90.3814 18.8473 88.6615 18.6238 86.976C18.4054 85.329 18.1259 83.6631 18.053 81.9748C18.0098 80.9751 17.8092 79.934 17.7604 78.9014C17.7433 78.5406 17.677 78.1857 17.4785 77.8783C17.3473 77.6753 17.1379 77.5764 16.8898 77.6096C16.5997 77.6484 16.5206 77.8669 16.5391 78.1088C16.6532 79.6064 15.983 81.0132 16.0856 82.5251C16.1776 83.8821 16.0191 85.2269 15.6161 86.5667C15.4217 87.2131 15.0004 88.3288 16.4201 88.5022C16.6276 88.5276 16.8004 88.8449 16.6319 89.0566C16.3523 89.4081 16.0107 89.7944 15.5371 89.7895C15.0727 89.7848 14.9596 89.3571 14.883 88.948C14.6974 87.9574 14.5844 86.9612 14.4904 85.9571C14.3998 84.9884 14.4463 83.9432 13.6729 83.1361C13.2565 83.4456 13.4 83.825 13.4625 84.1495C13.6625 85.187 13.6368 86.1578 12.8365 86.9677C12.5505 87.2571 12.7123 87.5275 12.8244 87.8528C13.6785 90.3304 14.3868 92.8452 14.369 95.4967C14.365 96.1007 14.4688 96.5777 15.0432 96.8782C15.4349 97.083 15.5299 97.451 15.5282 97.8706C15.5247 98.6846 15.5125 99.4869 15.2751 100.285C15.0817 100.936 14.8853 101.756 15.3382 102.255C15.9075 102.882 15.8888 103.528 15.8945 104.235C15.901 105.048 15.8942 105.862 15.9128 106.676C15.9179 106.896 15.9472 107.281 16.0448 107.308C16.9824 107.572 17.1999 108.718 18.0717 108.98C19.0465 109.273 19.5958 110.019 20.3082 110.641C21.792 111.937 23.3615 113.138 24.8568 114.428C27.1319 116.389 29.8074 117.815 32.0331 119.858C34.7572 122.359 38.043 122.964 41.5946 122.3C43.6886 121.908 45.779 121.554 47.918 121.59C48.4711 121.6 49.0568 121.708 49.571 121.565C50.566 121.291 51.7036 121.401 52.3896 120.259C53.2748 118.786 53.3553 118.835 54.4373 120.078C54.7277 120.031 54.7546 119.745 54.8211 119.563C55.5175 117.657 57.1989 117.08 58.8802 116.469C59.7033 116.17 60.5208 115.932 61.0887 115.078C61.5958 114.316 62.2296 113.478 63.3985 113.549C63.7032 113.567 63.8456 113.208 64.015 112.972C64.7272 111.982 65.4915 111.077 66.8503 111C67.0604 110.988 67.2828 110.845 67.4634 110.713C69.5008 109.225 71.7137 107.974 73.5006 106.147C74.0183 105.618 74.1945 105.066 74.2243 104.333C74.3954 100.125 74.0167 95.9224 74.5068 91.6944C74.9118 88.201 76.0882 84.9658 76.9289 81.6199C77.4775 79.4363 78.2229 77.3027 78.8528 75.1387C78.9946 74.6514 78.8512 74.2113 78.2729 74.0945C77.8055 74.0001 77.4062 74.129 77.2987 74.6523C76.8482 76.8454 75.992 78.8997 75.1013 80.9332C74.0104 83.4238 73.8916 86.33 71.6457 88.5328C71.6457 86.7487 71.6457 85.0534 71.6365 83.1774ZM60.6197 91.2774C61.0319 91.4458 61.4441 91.6143 61.856 91.7826C62.2324 91.4672 62.4309 91.1493 62.1036 90.6864C61.7982 90.2545 61.5176 90.3839 61.1158 90.5792C60.6494 90.8058 60.1637 90.7002 59.8181 90.2348C59.6272 89.9777 59.4353 89.7124 59.113 89.5844C58.7472 89.7089 58.6562 90.2594 58.082 90.1726C57.7551 89.1115 56.9899 89.6173 56.464 89.9384C55.4834 90.5372 55.1325 89.936 54.7665 89.2412C54.6935 89.1026 54.7187 88.9131 54.6483 88.7721C54.3898 88.2544 54.0467 87.9632 53.5503 88.5209C53.0621 89.0694 52.3726 89.4302 52.0844 90.2142C51.297 89.738 50.4969 89.3773 50.6924 88.2862C50.7532 87.9466 50.7952 87.6008 50.3373 87.53C49.9198 87.4655 49.6701 87.7044 49.5323 88.0829C49.4299 88.3645 49.5761 88.7639 49.1138 88.9143C48.5103 88.64 48.3309 87.5877 47.3237 87.9205C46.577 88.1672 45.8202 88.3172 45.6509 89.2282C45.0796 89.1934 45.0116 88.8164 44.8584 88.4445C44.5705 87.7461 43.3933 87.2053 42.5235 87.3172C41.6821 87.4254 41.9365 88.1133 41.8677 88.6175C41.7722 89.3174 41.364 89.4579 40.8476 89.1003C39.8126 88.3836 38.8052 88.5068 37.7696 89.0484C37.4837 89.198 37.1942 89.3409 36.8557 89.5126C36.3218 88.629 35.6779 88.841 35.2561 89.4967C34.731 90.3128 34.2003 90.5397 33.3499 89.8175C33.1798 90.7856 32.3958 90.5626 31.8754 90.8344C31.2195 91.1768 30.8543 91.0067 30.4802 90.4973C29.719 89.4611 29.6319 89.4673 28.9202 90.5703C28.8365 90.6999 28.7465 90.8253 28.6763 90.9281C28.3522 90.9248 28.2125 90.7089 28.0757 90.5519C27.7779 90.2101 27.518 89.6852 26.9978 90.0743C26.5366 90.4193 26.0773 90.9804 26.3476 91.5715C26.6337 92.1975 26.6146 92.8636 26.781 93.5525C27.4187 92.9813 27.9845 92.4746 28.5303 91.9857C28.9684 92.2503 28.6759 92.7758 29.0931 92.9564C29.8218 92.8182 29.89 91.671 30.7691 91.7521C31.0671 92.0039 30.8623 92.4691 31.3028 92.6211C31.638 92.6143 31.7815 92.2818 32.0182 92.0758C32.323 91.8107 32.5459 91.0982 33.0565 91.5798C33.578 92.0717 33.9765 91.2762 34.3927 91.6117C34.5099 91.7062 34.6107 91.8528 34.6584 91.9958C34.8108 92.4528 35.0865 92.6822 35.5904 92.6862C36.1627 92.6907 36.4687 92.3526 36.7559 91.9372C36.9539 91.6509 36.8458 91.2041 37.2654 91.0104C38.0419 91.2769 38.0101 92.3704 38.8904 92.6208C39.167 92.3929 39.4531 92.1296 39.7673 91.9059C40.1094 91.6624 40.4753 91.4518 40.8349 91.2335C41.2962 90.9533 41.5755 90.973 41.9126 91.5288C42.5011 92.499 43.3349 93.0429 44.3597 92.2744C44.671 92.0409 45.0159 91.8467 45.3025 91.5871C45.741 91.1898 46.034 91.2628 46.4298 91.6963C47.294 92.6428 47.8013 92.5263 48.3398 91.3303C48.5361 90.8943 48.6463 90.3978 49.2297 90.2486C49.5822 90.668 49.5516 91.2307 49.7912 91.6836C50.1821 92.4223 50.582 92.4426 51.0512 91.748C51.3343 91.3291 51.5017 90.802 52.1253 90.6C52.2896 90.8149 52.5112 91.0161 52.6237 91.2664C53.1955 92.5384 53.359 92.5951 54.3725 91.7177C55.0566 91.1255 55.6996 90.6585 56.4882 91.5996C56.8716 92.057 57.3045 91.9603 57.5733 91.4282C57.9371 90.7079 58.3581 90.9676 58.6861 91.3957C59.1292 91.9741 59.4825 92.1127 59.9366 91.4225C60.017 91.3002 60.2923 91.3061 60.6197 91.2774ZM24.3953 83.71C25.1949 84.1497 25.6203 84.914 26.0741 85.7852C27.2837 84.4061 27.7305 82.7719 28.2667 81.209C28.596 80.2492 27.799 79.5222 27.383 78.733C27.1734 78.3352 27.0068 77.9138 26.8353 77.4971C26.7134 77.2012 26.5353 77.0001 26.1919 76.9978C25.5384 76.9935 25.2006 76.6142 25.0179 76.0292C24.7916 75.3046 24.1225 75.0214 23.5419 74.724C23.0088 74.4509 22.7973 75.0836 22.4572 75.3427C22.1996 75.5388 21.8885 75.8208 21.5877 75.5798C21.0777 75.171 20.6641 75.2787 20.1813 75.6013C19.7264 75.9052 19.2202 76.1227 18.9041 76.6126C18.7364 76.8726 18.8113 77.07 18.8818 77.3339C19.1043 78.1661 19.355 79.0058 19.4337 79.8575C19.5367 80.9722 19.9839 81.7464 21.045 82.1582C22.1492 82.5867 23.2945 82.9313 24.3953 83.71ZM78.4816 83.5527C79.5346 83.8506 80.8809 83.2345 81.5562 84.6169C82.2391 84.1902 82.6987 83.6516 83.0654 83.0359C83.6609 82.0364 84.1774 80.984 84.84 80.0325C85.1995 79.5161 85.3704 79.0322 85.3623 78.423C85.3528 77.7118 85.1982 76.971 85.4431 76.2923C85.9873 74.7846 86.4959 73.2632 87.2689 71.8419C87.9205 70.6437 88.0622 69.2835 88.259 67.9546C88.3149 67.5774 88.2325 67.2264 87.72 67.2194C87.2856 67.2134 87.0361 67.3988 87.0409 67.8498C87.0501 68.6942 86.6368 69.3907 86.2641 70.1011C85.3801 71.7859 84.0465 73.1258 82.8355 74.5595C82.4827 74.9772 81.9914 75.3349 81.9768 75.9311C81.953 76.9036 81.3615 77.4605 80.6291 77.9239C80.2646 78.1545 79.9173 78.3723 79.8184 78.8326C79.5471 80.0946 78.981 81.1604 77.9394 81.9876C77.2679 82.5209 77.5258 83.3745 78.4816 83.5527ZM46.0725 94.7352C44.885 95.5743 44.8857 95.5738 44.08 94.4382C43.7509 93.9745 43.1543 93.6894 42.905 94.2216C42.2414 95.6382 41.373 95.2041 40.4095 94.7236C40.1498 94.5941 39.8657 94.5025 39.5832 94.4319C39.0061 94.2876 38.4919 94.3208 38.1708 94.945C38.0571 95.1658 37.8429 95.3348 37.6915 95.5083C37.2141 95.4631 36.9767 95.1446 36.6848 94.8897C36.388 94.6306 36.0218 94.391 35.6501 94.7539C35.1901 95.203 34.7863 95.075 34.3697 94.7141C34.0242 94.4148 33.625 94.179 33.2766 94.6336C32.9507 95.0587 32.6613 94.8597 32.2677 94.8005C31.3082 94.6564 30.3525 94.1226 29.3552 94.6438C29.0913 94.7817 28.7993 94.9251 28.8796 95.2891C28.9675 95.6872 29.3277 95.6313 29.5995 95.599C30.7463 95.463 31.8684 96.0272 32.9788 95.5824C33.3464 96.7504 33.456 96.8001 34.3916 96.229C34.87 95.9371 35.2865 95.9359 35.7174 96.3211C36.1032 96.666 36.5252 96.8709 37.0249 96.4801C37.3579 96.2197 37.6551 96.214 37.9088 96.6354C38.0922 96.94 38.4324 96.9847 38.7726 96.9832C39.6624 96.9793 40.6081 97.2021 41.2317 96.2204C42.1541 97.3621 43.3755 96.8317 44.1004 96.4875C45.1823 95.9738 45.9863 96.2556 46.9276 96.5329C47.5284 96.7099 48.1606 96.7603 48.6874 96.3124C49.2213 95.8586 49.7311 95.8455 50.26 96.2969C50.6849 96.6594 51.0907 96.6704 51.5878 96.3673C52.2728 95.9496 52.9273 96.0558 53.4559 96.7075C53.8235 97.1607 54.2564 97.074 54.6444 96.7679C54.8892 96.5748 55.0616 96.29 55.3083 95.9965C56.2575 96.5857 57.1365 96.509 57.7658 95.5684C58.3526 95.6374 58.6466 96.4807 59.1038 96.135C59.6729 95.7047 60.102 95.772 60.6722 95.9934C61.0115 96.1251 61.3601 95.9676 61.6441 95.6912C61.9793 95.3649 61.9963 94.961 61.8274 94.6159C61.6164 94.1847 61.2188 94.34 60.9043 94.5363C60.294 94.9174 59.7907 94.9335 59.3473 94.2656C59.1094 93.9074 58.7618 93.9247 58.4196 94.2006C58.228 94.3553 58.0702 94.6028 57.7648 94.5469C56.998 93.5711 56.6749 93.5619 55.9151 94.4706C55.4972 94.9704 55.126 95.2458 54.4937 94.6181C54.0054 94.1333 53.3346 94.0195 52.8747 94.8289C52.7758 95.0031 52.6429 95.2308 52.3287 95.2663C52.251 95.2307 52.123 95.1951 52.0223 95.1219C51.6289 94.8359 51.2524 94.5261 50.8539 94.2476C50.3803 93.9166 49.9517 93.7018 49.6724 94.5066C49.4499 95.1479 48.63 95.2132 48.2299 94.6716C47.4147 93.5682 47.061 93.5599 46.0725 94.7352ZM66.4447 80.299C67.0986 80.0058 67.7159 79.7035 67.6829 78.8109C67.6741 78.5717 67.9077 78.3909 68.1485 78.2377C69.3582 77.4679 69.4315 76.2853 68.3654 75.4065C68.2248 75.2907 68.1056 75.1136 68.046 74.9409C67.7974 74.2211 67.4019 74.3594 67.0866 74.8251C66.7469 75.3267 66.3427 75.5725 65.7446 75.6306C65.3968 75.6644 65.0773 75.8851 64.8754 76.2053C64.4455 76.8873 63.992 77.5571 63.6082 78.2644C63.4119 78.6261 63.2451 79.0658 63.8814 79.276C64.447 79.4628 64.5116 79.97 64.5176 80.4714C64.5335 81.8021 64.5262 83.1331 64.5516 84.4635C64.5578 84.788 64.3996 85.1932 64.9191 85.4412C65.8703 84.6513 66.4455 83.5799 66.9166 82.4593C67.2402 81.6894 66.761 81.0832 66.3201 80.5023C66.3101 80.4891 66.3417 80.4443 66.4447 80.299ZM9.74853 82.5322C11.3877 82.5291 11.724 81.962 11.1234 80.3882C10.6781 79.2214 10.0795 78.0967 9.67687 76.9544C9.04338 75.1574 7.93209 73.9312 6.47965 72.8346C6.29869 73.2932 6.39688 73.7241 6.71187 74.0039C7.47089 74.6781 7.53927 75.516 7.57613 76.4551C7.60578 77.2104 7.66668 78.1094 8.33158 78.6039C8.76695 78.9278 8.90315 79.2329 8.92091 79.7123C8.944 80.3355 8.82361 80.9327 8.70851 81.5384C8.58263 82.2008 8.80051 82.6269 9.74853 82.5322ZM72.1931 77.6162C72.2633 78.5078 72.0439 79.4299 72.4702 80.3317C73.0725 78.9132 74.205 77.858 74.7551 76.4666C75.0105 75.8205 74.7353 75.284 74.1067 74.8713C73.6215 75.409 73.0125 75.4678 72.3461 75.262C72.0581 76.0151 72.2521 76.73 72.1931 77.6162ZM13.0829 79.1571C12.8371 78.3521 12.7768 77.4858 12.3764 76.6703C11.3642 77.7296 11.7126 79.3688 12.9446 79.8333C13.1367 79.6954 13.0687 79.487 13.0829 79.1571ZM14.5463 76.478C14.4058 76.2542 14.2074 76.1815 13.9721 76.2997C13.7276 76.4225 13.7115 76.6647 13.7734 76.8842C13.9017 77.3394 14.1124 77.7521 14.5432 78.0757C14.6986 77.5569 14.6458 77.0862 14.5463 76.478ZM63.1975 95.3901C63.1982 95.6587 63.3214 95.8537 63.5994 95.7836C64.1464 95.6457 64.5718 95.3492 64.7198 94.6918C64.0449 94.5264 63.5965 94.7961 63.1975 95.3901ZM22.1797 84.1886C22.5164 84.2448 22.8753 84.5964 23.2508 84.0703C22.7299 83.8012 22.3357 83.3586 21.7111 83.523C21.5745 83.9134 21.8173 84.0226 22.1797 84.1886ZM12.2845 85.5992C12.8101 85.5298 12.8398 85.396 12.507 84.5544C12.0793 84.7724 12.2937 85.1607 12.2845 85.5992Z" fill="white"/>
<path d="M39.2187 48.876C39.1644 49.575 39.0007 50.1459 38.4464 50.5485C38.2746 50.6733 38.1937 50.9177 38.0544 51.0939C37.7402 51.4914 37.8497 51.8203 38.2176 52.0916C38.6248 52.3919 38.9842 52.2074 39.2311 51.8748C39.4785 51.5417 39.6799 51.1598 39.827 50.7711C39.9692 50.3954 40.1988 50.2044 40.5488 50.1047C40.8726 50.5256 40.6259 50.8015 40.4591 51.1211C39.7882 52.4058 38.9022 53.5658 38.4596 54.986C37.8137 57.0589 37.4086 59.173 37.2312 61.3225C37.1164 62.7123 37.2231 64.1192 37.1903 65.5175C37.1708 66.3486 36.9918 66.9403 35.8792 67.03C34.6411 67.1299 34.6179 68.3948 34.3061 69.3133C34.2859 69.3726 34.3075 69.445 34.2925 69.5072C34.1898 69.9315 34.4906 70.7191 33.7792 70.6389C33.081 70.5601 33.3186 69.7494 33.4428 69.3373C34.1668 66.9353 34.6424 64.4713 35.3905 62.0687C36.0339 60.0027 36.8913 57.9389 36.9185 55.7067C36.9224 55.3851 36.9458 55.0593 36.7715 54.7564C36.3884 54.0907 35.9559 54.0198 35.5354 54.6498C35.2081 55.1401 34.8346 55.3876 34.2537 55.3251C34.1906 55.3183 34.1058 55.3133 34.0628 55.3474C32.835 56.3218 31.3438 56.7418 29.9124 57.2586C28.4684 57.7799 28.2609 58.8241 28.4365 60.1272C28.4618 60.3151 28.4172 60.5146 28.3893 60.7064C28.3813 60.7612 28.3179 60.808 28.2541 60.8928C27.7669 60.6855 27.9661 60.2363 27.9186 59.8959C27.7512 58.6965 27.3708 58.4337 26.2544 58.881C25.5951 59.1451 24.8966 59.2582 24.2409 59.5615C23.4075 59.9471 23.0873 60.5016 23.106 61.3853C23.1375 62.8812 23.112 64.3784 23.1099 65.875C23.109 66.5015 23.0152 67.091 22.5097 67.5086C22.1077 67.4293 22.0813 67.1426 22.1015 66.8959C22.2394 65.2052 21.6892 63.5592 21.8318 61.8577C21.942 60.5442 21.712 60.3864 20.3981 60.1833C19.7939 60.0899 19.1836 60.0439 18.6172 59.7493C17.9793 59.4176 17.6178 59.9551 17.1987 60.2864C16.9169 60.5091 16.7784 61.0763 16.2874 60.825C15.7372 60.5434 16.431 60.1888 16.3321 59.9429C15.8727 58.8018 15.9929 57.557 15.5448 56.3895C14.9707 54.8934 14.5252 53.3463 13.9231 51.8494C13.5334 50.8806 14.1067 49.8485 14.348 48.9295C14.8932 46.8536 15.4789 44.7362 16.8759 42.997C17.2198 42.5688 17.5362 42.1142 18.0758 41.91C18.6014 42.309 18.0639 42.8717 18.3378 43.2843C18.3999 43.3109 18.4886 43.3723 18.5094 43.3545C20.2084 41.8989 22.5231 41.6343 24.3145 40.3342C25.1874 39.7007 25.9686 38.9049 27.1138 38.6577C28.8953 38.2731 30.6887 38.1268 32.3607 38.8703C33.5744 39.41 34.5708 40.4831 35.1721 41.6049C36.0856 43.3091 37.194 44.9208 37.9169 46.7157C38.2368 47.51 38.8052 48.0931 39.2187 48.876Z" fill="white"/>
<path d="M61.3937 60.7843C61.6459 61.7309 61.4193 62.1095 60.5767 62.1404C58.1803 62.2285 58.3447 61.9718 59.0774 60.0298C59.7608 58.2186 59.8378 58.2486 57.9365 57.8866C56.6643 57.6444 55.4881 57.1161 54.2955 56.6421C54.0644 56.5503 53.7389 56.3678 53.6991 56.1766C53.4511 54.9855 52.6119 53.9913 52.5384 52.7622C52.4861 51.8894 51.9937 51.1145 52.1134 50.1967C52.2086 49.4669 52.224 48.7596 52.4896 48.0322C53.0501 46.4971 53.4464 44.9015 53.8935 43.3261C53.9583 43.0977 54.0292 42.886 54.2121 42.7418C55.8241 41.4707 57.1111 39.7013 59.1247 39.0538C60.4458 38.629 61.8588 38.2647 63.2999 38.4626C64.2422 38.592 64.7373 39.5302 65.6375 39.7911C66.8923 40.1548 67.8673 41.0381 68.9306 41.7471C69.4692 42.1062 69.8629 42.0324 70.2611 41.5549C70.4607 41.3155 70.678 41.0314 71.0711 41.1596C71.1151 41.2138 71.1763 41.2567 71.191 41.312C71.3281 41.8278 70.8035 42.4432 71.3516 42.8767C72.0474 43.4269 72.8949 43.7572 73.7534 43.8323C74.8071 43.9244 75.9054 43.7537 76.1469 45.2037C76.1592 45.2774 76.2708 45.3667 76.3534 45.3917C77.5498 45.7536 77.3553 46.7342 77.2159 47.563C76.9556 49.1094 76.5672 50.6345 76.223 52.1663C76.0951 52.7353 76.0078 53.3266 75.7824 53.8568C75.5233 54.4663 75.4378 54.997 75.7693 55.614C75.9968 56.0375 75.8891 56.5092 75.5353 56.8747C74.7005 57.7367 73.6477 58.3328 72.7702 59.1544C72.2561 59.6358 71.4391 59.2417 70.7386 59.54C69.6801 59.9906 69.3048 60.48 69.7624 61.561C69.9001 61.8863 70.0784 62.1952 70.2475 62.5064C70.397 62.7815 70.4955 63.0433 70.1542 63.2888C69.4378 63.2084 69.3924 62.505 69.243 62.068C68.981 61.3015 68.5017 60.8814 67.8077 60.6127C67.014 60.3054 66.1782 60.1586 65.3423 60.2598C64.5582 60.3548 63.8254 60.4294 63.0537 60.1086C62.494 59.876 61.8481 59.9107 61.2546 60.0632C61.1006 60.3359 61.2762 60.5206 61.3937 60.7843Z" fill="white"/>
<path d="M47.5669 75.3185C47.1366 74.703 46.7756 74.1243 46.3624 73.5856C45.5985 72.5894 44.44 72.6352 43.8712 73.7285C43.2989 74.8287 42.2629 75.479 41.4786 76.3696C41.037 76.871 40.2983 76.6124 39.7044 76.5812C39.2554 76.5575 38.6979 77.0341 38.3579 76.4667C37.8664 75.6463 37.0311 75.0175 36.9347 73.971C36.8963 73.5542 37.0156 73.1984 37.3193 72.9124C37.9301 72.3375 38.0517 71.6292 38.0994 70.8081C38.1933 69.1924 38.5577 67.5966 38.4678 65.9615C38.4392 65.4412 38.4043 64.9603 38.151 64.4675C37.4376 63.079 37.7819 61.9391 38.8326 60.7557C39.4201 60.094 39.7454 58.9879 39.7588 58.0757C39.7812 56.5571 40.2234 55.1712 40.6299 53.7646C41.1842 51.8469 41.6562 49.9016 42.4011 48.0422C42.4503 47.9196 42.5036 47.8024 42.8005 47.8242C43.2007 49.7376 41.9729 51.5394 42.2892 53.5943C42.8537 52.9178 42.9478 52.1089 43.5105 51.5138C44.579 50.3838 45.4952 50.0112 46.703 50.946C47.8729 51.8515 48.8294 53.0916 49.9954 53.9524C51.6283 55.1579 51.5809 56.9618 52.1886 58.5083C52.8596 60.2156 53.4655 61.9323 54.4909 63.4674C54.671 63.7371 54.9788 64.0828 54.7561 64.345C54.0958 65.1222 54.4278 65.8276 54.7567 66.5741C54.847 66.7791 54.8265 67.0199 54.6605 67.2634C53.7744 67.3147 53.6269 66.6936 53.5688 66.0226C53.453 64.6854 53.0818 63.4231 52.5452 62.1979C52.422 61.9164 52.249 61.7194 51.9812 61.4654C51.727 62.0761 51.9003 62.6306 51.9956 63.1312C52.3449 64.9664 52.7278 66.7823 52.7052 68.6754C52.697 69.3698 52.9656 70.1812 53.9639 70.2502C54.5127 70.2882 54.5692 70.7334 54.5043 71.1132C54.297 72.3273 53.9885 73.5198 53.3791 74.6049C53.2763 74.788 53.0022 75.0577 52.8871 75.0229C51.7546 74.6811 51.113 75.7236 50.1773 75.9652C48.8863 76.2986 48.5823 76.369 47.5669 75.3185Z" fill="white"/>
</g>
<defs>
<clipPath id="clip0_570_54">
<rect width="91" height="125" fill="white"/>
</clipPath>
</defs>
</svg>
